<svg id="logo" xmlns="http://www.w3.org/2000/svg" width="271" height="250" viewBox="0 0 271 250">
  <defs>
    <style>
      .cls-1, .cls-15, .cls-16 {
        fill: #fff;
      }

      .cls-2 {
        fill: #22c4f3;
      }

      .cls-3 {
        fill: #0b0f30;
      }

      .cls-20, .cls-4 {
        fill: #313a5f;
      }

      .cls-11, .cls-14, .cls-21, .cls-5, .cls-6 {
        fill: none;
      }

      .cls-5 {
        stroke: #bb9d42;
        stroke-width: 2px;
      }

      .cls-11, .cls-14, .cls-5 {
        stroke-miterlimit: 10;
      }

      .cls-10, .cls-11, .cls-12, .cls-13, .cls-14, .cls-15, .cls-16, .cls-18, .cls-19, .cls-20, .cls-7, .cls-8, .cls-9 {
        isolation: isolate;
      }

      .cls-10, .cls-11, .cls-16, .cls-7, .cls-9 {
        font-size: 72.4px;
      }

      .cls-12, .cls-17, .cls-18, .cls-19, .cls-7 {
        fill: #bb9d42;
      }

      .cls-10, .cls-11, .cls-12, .cls-13, .cls-14, .cls-15, .cls-16, .cls-18, .cls-19, .cls-7, .cls-9 {
        font-family: Cardo-Bold, Cardo;
        font-weight: 700;
      }

      .cls-10, .cls-13 {
        fill: #373435;
      }

      .cls-11, .cls-14 {
        stroke: #fff;
      }

      .cls-12, .cls-13, .cls-14, .cls-15 {
        font-size: 64.65px;
      }

      .cls-14, .cls-21 {
        stroke-width: 0.75px;
      }

      .cls-18, .cls-19 {
        font-size: 19.39px;
      }

      .cls-18 {
        letter-spacing: -0.02em;
      }

      .cls-20 {
        font-size: 6.46px;
        font-family: Cardo-Regular, Cardo;
      }

      .cls-21 {
        stroke: #bb9242;
        stroke-linecap: round;
        stroke-linejoin: round;
      }
    </style>
  </defs>
  <circle id="white-border" class="cls-1" cx="128.14" cy="125" r="125"/>
  <path id="sky" class="cls-2" d="M209.71,102.4H41.46c.22-1,.45-1.93.72-2.88a86.48,86.48,0,0,1,166.79,0C209.24,100.46,209.47,101.39,209.71,102.4Z"/>
  <g id="mountains">
    <path class="cls-1" d="M127.72,104.46l-18.18-21L105,78.26l-.78-.88-19.8-23a.65.65,0,0,0-.93,0h0l-47.29,53a.76.76,0,0,0,0,1,.74.74,0,0,0,.44.18h3.27l42.89.33,13.51.09,34.08.26a.64.64,0,0,0,.51-.26.74.74,0,0,0,0-1Z"/>
    <path class="cls-1" d="M157.55,78.52l-3.76-6.47L136.5,42.67a1.81,1.81,0,0,0-2.44-.73,1.86,1.86,0,0,0-.74.73l-11.4,19.39-8.14,13.81-4.26,7.25L96.3,105.46a2,2,0,0,0,.62,2.75,2.13,2.13,0,0,0,1,.31h73.92a2,2,0,0,0,1.9-2.11,2,2,0,0,0-.3-1Z"/>
    <path class="cls-1" d="M212.42,107.31l-3.88-4.69-39.39-48a.65.65,0,0,0-.9-.09l-.09.09L153.79,72.12l-4,4.91-8.5,10.35L127.71,104l-2.85,3.33a.73.73,0,0,0,.08,1,.69.69,0,0,0,.42.15H211.9a.68.68,0,0,0,.66-.71h0A.6.6,0,0,0,212.42,107.31Z"/>
    <path class="cls-1" d="M141.25,87.41,132,75.33,121.86,62.06,120,59.6a.66.66,0,0,0-.92-.1l-.11.1L105.78,76.83,104.93,78,82.47,107.31a.73.73,0,0,0,.12,1h0a.44.44,0,0,0,.33.1h73a.7.7,0,0,0,.68-.72v0a.7.7,0,0,0-.16-.4Z"/>
    <polygon id="snow-3" class="cls-3" points="173.44 63.6 170.22 59.62 170.22 65.49 175.88 73.48 175.34 71.29 180.77 73.48 173.44 63.6"/>
    <g id="snow-2">
      <polygon class="cls-3" points="133.37 44.94 128.13 63.57 129.63 65.63 139.82 75.49 138.84 66.6 144.44 72.2 144.21 67.59 148.82 70.26 133.37 44.94"/>
      <polygon class="cls-1" points="125.08 63.28 132.88 63.11 129.94 57.17 125.08 63.28"/>
    </g>
    <path id="snow-1" class="cls-4" d="M85.48,64.65a4.18,4.18,0,0,1,3.45,1.9c1.06,1.88,1.41,6.71,1.41,6.71l4.59-4-8.31-9.36Z"/>
  </g>
  <path id="gold-circle" class="cls-5" d="M217.66,123.78A92,92,0,1,1,36,102.4c.25-1,.5-2,.78-3.06a92.07,92.07,0,0,1,177.57,0c.28,1,.54,2,.79,3.06A91.09,91.09,0,0,1,217.66,123.78Z"/>
  <path id="white-circle" class="cls-6" d="M224.06,123.8a98,98,0,0,1-5.45,32.32,95.55,95.55,0,0,1-8.7,18.54,98.6,98.6,0,0,1-180.18-73.5v-.23c.26-1.09.53-2.19.83-3.28a98.47,98.47,0,0,1,189.92,0c.31,1.08.58,2.18.84,3.28v.23A98.07,98.07,0,0,1,224.06,123.8Z"/>
  <path class="cls-1" d="M224.06,123.8a98,98,0,0,1-5.45,32.32H32.87a99.16,99.16,0,0,1-3.13-55H221.42A97.3,97.3,0,0,1,224.06,123.8Z"/>
  <g id="CLEAR">
    <g id="C">
      <text class="cls-7" transform="translate(10.31 153.78) scale(1.02 1)">C</text>
      <g>
        <g class="cls-8">
          <text class="cls-9" transform="translate(12.51 152.07)"><tspan xml:space="preserve">C  </tspan></text>
        </g>
        <g class="cls-8">
          <text class="cls-10" transform="translate(12.51 152.07)"><tspan xml:space="preserve">C  </tspan></text>
        </g>
        <g class="cls-8">
          <text class="cls-11" transform="translate(12.51 152.07)"><tspan xml:space="preserve">C  </tspan></text>
        </g>
      </g>
    </g>
    <g id="L">
      <text class="cls-12" transform="translate(67.51 149.4)">L</text>
      <g>
        <text class="cls-13" transform="translate(66.05 149.4)">L</text>
        <text class="cls-13" transform="translate(66.05 149.4)">L</text>
        <text class="cls-14" transform="translate(66.05 149.4)">L</text>
      </g>
    </g>
    <g id="E">
      <text class="cls-12" transform="translate(108.75 149.4)">E</text>
      <g>
        <text class="cls-12" transform="translate(107.06 149.4)">E</text>
        <text class="cls-15" transform="translate(107.06 149.4)">E</text>
        <text class="cls-13" transform="translate(107.06 149.4)">E</text>
        <text class="cls-14" transform="translate(107.06 149.4)">E</text>
      </g>
    </g>
    <g id="A">
      <text class="cls-12" transform="translate(148.91 149.4)">A</text>
      <g>
        <text class="cls-12" transform="translate(148.08 148.31)">A</text>
        <text class="cls-15" transform="translate(148.08 148.31)">A</text>
        <text class="cls-13" transform="translate(148.08 148.31)">A</text>
        <text class="cls-14" transform="translate(148.08 148.31)">A</text>
      </g>
    </g>
    <g id="R">
      <text class="cls-7" transform="translate(193.82 153.78)">R</text>
      <g>
        <text class="cls-10" transform="translate(192.81 152.07)">R</text>
        <text class="cls-16" transform="translate(192.81 152.07)">R</text>
        <text class="cls-10" transform="translate(192.81 152.07)">R</text>
        <text class="cls-11" transform="translate(192.81 152.07)">R</text>
      </g>
    </g>
  </g>
  <g id="gold-circleOpen">
    <polygon class="cls-17" points="235.09 99.45 213.43 99.21 213.51 101.29 235.09 99.45"/>
    <polygon class="cls-17" points="232.05 156.42 210.39 156.17 210.47 158.24 232.05 156.42"/>
    <polygon class="cls-17" points="19.32 156.3 40.98 156.17 40.9 158.24 19.32 156.3"/>
    <polygon class="cls-17" points="14.09 100.24 37.76 99.21 37.76 101.29 14.09 100.24"/>
  </g>
  <g id="CARE">
    <polygon class="cls-17" points="64.19 161.82 95.7 160.71 95.7 162.92 64.19 161.82"/>
    <g>
      <text class="cls-18" transform="translate(100.81 168.17)">C</text>
      <text class="cls-19" transform="translate(115.37 168.17)">ARE</text>
    </g>
    <polygon class="cls-17" points="193.78 161.82 162.27 160.71 162.27 162.92 193.78 161.82"/>
  </g>
  <g id="made-with">
    <text class="cls-20" transform="translate(142.85 182.68)">HYDRAGLYDE</text>
    <text class="cls-20" transform="translate(73.43 182.69)">MADE WITH</text>
    <g id="eye">
      <path class="cls-21" d="M117.4,179.2a16.66,16.66,0,0,0,23.55,0h0v-.13a16.63,16.63,0,0,0-23.53,0h0Z"/>
      <circle class="cls-4" cx="129.18" cy="179.15" r="4.62"/>
      <circle class="cls-17" cx="129.18" cy="179.15" r="2.25"/>
    </g>
  </g>
  <g>
    <path class="cls-17" d="M94.93,201.37H95a.8.8,0,0,1,.47,1.1,1,1,0,0,1-.43.57,1.48,1.48,0,0,1-.67.25,1.23,1.23,0,0,1-.66,0,1.3,1.3,0,0,1-.78-.56.54.54,0,0,1,0-.18c0-.1.1-.13.28-.08s.1.08.18.21l.23.31a.58.58,0,0,0,.3.18.7.7,0,0,0,.67-.09,1,1,0,0,0,.44-.57.73.73,0,0,0,0-.58.69.69,0,0,0-.39-.34h-.27c.54-.15.84-.35.93-.58a.44.44,0,0,0,0-.39.55.55,0,0,0-.28-.26.91.91,0,0,0-.93.21h0v-.08l.22-.14.31-.13a1,1,0,0,1,.55,0,1.2,1.2,0,0,1,.56.38.48.48,0,0,1,0,.49.75.75,0,0,1-.51.44h-.32Z"/>
    <path class="cls-17" d="M97.2,202.67a.54.54,0,0,1-.31,0,.68.68,0,0,1-.47-.43,1.23,1.23,0,0,1,0-.76,1.6,1.6,0,0,1,.44-.65.66.66,0,0,1,.59-.14.63.63,0,0,1,.46.48,1.27,1.27,0,0,1,0,.77,1.18,1.18,0,0,1-.43.64A.71.71,0,0,1,97.2,202.67Zm-.43-1.14a2,2,0,0,0-.1.64.36.36,0,0,0,.27.33c.22.08.41,0,.55-.39,0-.1.08-.19.11-.28l.13-.44c0-.34,0-.53-.24-.6a.3.3,0,0,0-.26,0,1.37,1.37,0,0,0-.22.2A4.41,4.41,0,0,0,96.77,201.53Zm3.32-.17.32.1c-1.29,1-2.58,1.89-4,2.8l-.34-.11c1.37-.9,2.74-1.83,4-2.79ZM99.41,205a.47.47,0,0,1-.33,0,.68.68,0,0,1-.44-.45,1.16,1.16,0,0,1,0-.78,1.46,1.46,0,0,1,.43-.66.61.61,0,0,1,.59-.15.63.63,0,0,1,.47.46,1.33,1.33,0,0,1,0,.79,1.15,1.15,0,0,1-.4.63A.58.58,0,0,1,99.41,205Zm-.47-1.11a1.71,1.71,0,0,0-.09.64.35.35,0,0,0,.28.31c.24.08.42,0,.55-.4a1,1,0,0,1,.1-.29c0-.09.09-.34.1-.43,0-.34,0-.53-.24-.6a.61.61,0,0,0-.27,0l-.21.21A2.72,2.72,0,0,0,98.94,203.91Z"/>
    <path class="cls-17" d="M105.53,206.2c0,.22.1.37.43.45v.09h0l-1.71-.4h.13a.92.92,0,0,0,.33,0,.29.29,0,0,0,.32-.21l.27-1.16h0l-2.07-.52h0l-.31,1.2c0,.2.09.34.4.42h0l-1.48-.38v-.11h0c.29.07.48,0,.53-.24.23-.86.45-1.74.67-2.58,0-.2,0-.33-.27-.4h0l1.29.33h0c-.24,0-.4,0-.45.25s-.2.75-.29,1.12h0l2.07.52h0l.27-1.18v-.1a.18.18,0,0,0-.14-.17l-.36-.17h0l1.5.34v.08h0c-.26,0-.41,0-.47.26A15.76,15.76,0,0,0,105.53,206.2Z"/>
    <path class="cls-17" d="M107.54,207.09h.1a.39.39,0,0,0,.3,0,.21.21,0,0,0,.13-.2l.15-.82h0l-.75-1.84a.85.85,0,0,0-.4-.53h-.14m0-.08h0l1.47.33h-.24a.21.21,0,0,0-.16.13.2.2,0,0,0,0,.11c.2.51.4,1,.62,1.53h.1l.91-1,.09-.12a.11.11,0,0,0,0-.13c0-.11,0-.2-.22-.26s-.09,0-.09,0h0l1.22.22h-.18a1.19,1.19,0,0,0-.44.21h0l-1.29,1.49a7.58,7.58,0,0,1-.17.93.22.22,0,0,0,0,.22.37.37,0,0,0,.26.15c.13,0,.19.08.18.09h-.11Z"/>
    <path class="cls-17" d="M110.94,204.13h0l.84.11h.65l.67.15.44.12a1.78,1.78,0,0,1,.45.28,1.8,1.8,0,0,1,.38.44,1.59,1.59,0,0,1,.27,1.06,1.67,1.67,0,0,1-.43.94,2,2,0,0,1-1.4.65,2.53,2.53,0,0,1-.55,0l-1.81-.26h0v-.08h0c.32,0,.5,0,.53-.21.15-.91.3-1.82.44-2.74a.18.18,0,0,0-.08-.22.41.41,0,0,0-.23-.11h-.17Zm1.11.26h0c-.17,1-.32,2-.48,3.05,0,.13.09.2.34.26h.23a1.82,1.82,0,0,0,1.42-.26,1.48,1.48,0,0,0,.65-1.13,1.73,1.73,0,0,0-.28-1.29,1.71,1.71,0,0,0-1.1-.65Z"/>
    <path class="cls-17" d="M114.88,208.29h.25a.29.29,0,0,0,.31-.26h0c.09-.89.19-1.77.3-2.58a.38.38,0,0,0-.15-.34.63.63,0,0,0-.23-.08h-.09l1.45.13H117a1.35,1.35,0,0,1,.75.4,1,1,0,0,1,.24.76.72.72,0,0,1-.44.64l-.26.1c.24.44.47.88.7,1.29a1.16,1.16,0,0,0,.53.52h0s0,.07-.09.07a1.18,1.18,0,0,1-.93-.52l-.14-.23-.6-1.09-.63-.1h0a9,9,0,0,1-.13,1.16.38.38,0,0,0,0,.21.61.61,0,0,0,.29.14h.23Zm1.63-3.3h-.15a12.85,12.85,0,0,1-.17,1.52v.07h.27c.49,0,.81-.07.94-.4a.74.74,0,0,0,.09-.36.78.78,0,0,0-.2-.65,1.08,1.08,0,0,0-.64-.31h-.13Z"/>
    <path class="cls-17" d="M121.55,208.87a1.4,1.4,0,0,1-.5,0,2.43,2.43,0,0,1-.84-.18,2,2,0,0,1-.85-.62,1.79,1.79,0,0,1,0-2.13,2.09,2.09,0,0,1,.8-.61,2.45,2.45,0,0,1,2,.1,2.2,2.2,0,0,1,.69.7,1.75,1.75,0,0,1,.23.92,1.53,1.53,0,0,1-.3.92,1.88,1.88,0,0,1-.77.68A1.64,1.64,0,0,1,121.55,208.87Zm-2-2a2,2,0,0,0,.14.84,1.82,1.82,0,0,0,.52.71,1.33,1.33,0,0,0,.85.31,1.27,1.27,0,0,0,1.1-.44,1.68,1.68,0,0,0,.39-1.12,1.72,1.72,0,0,0-.36-1.22,1.26,1.26,0,0,0-.48-.41,1.51,1.51,0,0,0-.58-.18,1.4,1.4,0,0,0-.5,0,1.78,1.78,0,0,0-.36.14l-.28.24-.22.31A2,2,0,0,0,119.59,206.87Z"/>
    <path class="cls-17" d="M127.6,207.41h-.28a.29.29,0,0,0-.14.25v.82a1.59,1.59,0,0,1-.29.15l-.46.14a2.56,2.56,0,0,1-1.5,0,1.73,1.73,0,0,1-1.05-1,1.86,1.86,0,0,1-.14-.7,2.91,2.91,0,0,1,.09-.58,1.89,1.89,0,0,1,.93-1.07,2.06,2.06,0,0,1,.94-.25,4.15,4.15,0,0,1,1,.2H127v.84h0l-.08-.13h0a1.09,1.09,0,0,0-1.11-.79,1.26,1.26,0,0,0-1.08.48,1.91,1.91,0,0,0-.43,1.16,1.89,1.89,0,0,0,.39,1.21,1.3,1.3,0,0,0,1.15.54,1.34,1.34,0,0,0,.62-.11.26.26,0,0,0,.14-.11v-.69a.43.43,0,0,0-.14-.35.89.89,0,0,0-.53-.11h0Z"/>
    <path class="cls-17" d="M127.81,209h.51a.28.28,0,0,0,.22-.31V206a.36.36,0,0,0-.31-.31H128c.83,0,1.65,0,2.47-.08h.08l.08.74h0v-.18a.82.82,0,0,0-.1-.26.38.38,0,0,0-.24-.13h-1.1v1.29H130c.23,0,.34-.14.33-.4h0v1.09h-.08c0-.25-.09-.39-.24-.43H129v1.3a.19.19,0,0,0,.16.2h1a.43.43,0,0,0,.42-.24.61.61,0,0,0,.11-.39h.08v.85h0c-1,0-2,.08-3,.09Z"/>
    <path class="cls-17" d="M131.41,208.88h.25c.13,0,.2-.24.19-.51,0-.87-.12-1.75-.17-2.59,0-.11-.12-.18-.35-.18h.85c.88.83,1.79,1.64,2.7,2.44h0l-.15-1.73a1.32,1.32,0,0,0-.16-.64.36.36,0,0,0-.36-.12h-.15l1.29-.13h-.08l-.23.12c-.12.06-.17.14-.16.22.09,1,.2,2.05.29,3.07a.11.11,0,0,1,0,.08H135l-.08-.06c-1-.87-2-1.76-3-2.67h0l.15,2.51c0,.16.15.26.42.29h.17Z"/>
    <path class="cls-17" d="M137.69,208.35h.1c.18,0,.26-.16.25-.32-.12-.89-.23-1.77-.34-2.58,0-.16,0-.25-.13-.29a.86.86,0,0,0-.32,0h-.12l1.44-.22h.27a1.36,1.36,0,0,1,.81.22,1.07,1.07,0,0,1,.42.66,1,1,0,0,1-.21.78.77.77,0,0,1-.26.28.55.55,0,0,1-.32.14l-.79.08h0a7.42,7.42,0,0,0,.14,1,.31.31,0,0,0,.11.19.55.55,0,0,0,.36,0h.24v-.1h0Zm.71-3.59h-.15a12.8,12.8,0,0,0,.2,1.62h.27a.87.87,0,0,0,.64-.37.92.92,0,0,0,.17-.72.8.8,0,0,0-.34-.59,1,1,0,0,0-.7-.13h-.13Z"/>
    <path class="cls-17" d="M140.69,207.93v-.08h.22l.22-.06a.28.28,0,0,0,.17-.34l-.43-2.59c0-.16-.15-.25-.36-.27h-.23l2.44-.4h.08v.07c0,.06.11.47.16.71h0l-.07-.17a.6.6,0,0,0-.13-.25.41.41,0,0,0-.26-.09l-1.07.18h0c.07.43.14.87.22,1.3h0a4,4,0,0,0,.9-.16c.3-.06.32-.18.29-.44H143l.2,1.06h0c0-.23-.16-.36-.31-.39h-.13l-.91.16h0a8.41,8.41,0,0,0,.21,1.22.22.22,0,0,0,.21.19h.11l.9-.16a.41.41,0,0,0,.37-.29.68.68,0,0,0,0-.4.11.11,0,0,1,0-.08h0l.08.85h0c-1,.18-2,.34-3,.49Z"/>
    <path class="cls-17" d="M144.18,207.41h.08a.3.3,0,0,0,.22-.35c-.18-.86-.35-1.74-.53-2.58a.35.35,0,0,0-.24-.28h-.33v-.06h0l1.38-.31H145a1.2,1.2,0,0,1,.83.15.94.94,0,0,1,.46.64.72.72,0,0,1-.22.74l-.22.18,1.06,1a1.13,1.13,0,0,0,.66.33h0V207a1.15,1.15,0,0,1-1-.22l-.2-.17c-.31-.29-.61-.57-.89-.87l-.63.11h0l.23,1.13a.26.26,0,0,0,.13.19.51.51,0,0,0,.3,0h.27v.06h0Zm.53-3.63h-.08l.31,1.5h0m.07,0h.27c.48-.11.74-.33.76-.67a.81.81,0,0,0,0-.38.76.76,0,0,0-.39-.56,1.14,1.14,0,0,0-.68-.09h-.13Z"/>
    <path class="cls-17" d="M150.72,205.87a1.24,1.24,0,0,1-.45.21,2.46,2.46,0,0,1-.85.08,2,2,0,0,1-1-.33,1.82,1.82,0,0,1,0-2.87,2.67,2.67,0,0,1,.94-.5,2.2,2.2,0,0,1,1,0,2.17,2.17,0,0,1,.87.44,1.68,1.68,0,0,1,.5.8,1.47,1.47,0,0,1,0,1,2,2,0,0,1-.51.89A1.82,1.82,0,0,1,150.72,205.87Zm-2.47-1.29a2.11,2.11,0,0,0,.39.76,1.75,1.75,0,0,0,.71.52,1.42,1.42,0,0,0,.91,0,1.29,1.29,0,0,0,.9-.75,1.74,1.74,0,0,0,0-1.19,1.86,1.86,0,0,0-.71-1,1.74,1.74,0,0,0-.58-.24,1.26,1.26,0,0,0-.61,0,1.6,1.6,0,0,0-.75.42,2.17,2.17,0,0,0-.19.33,1.63,1.63,0,0,0-.07,1.19Z"/>
    <path class="cls-17" d="M153.37,204.83c0,.1.16.1.38,0s.13,0,.13,0v.06h0l-1.41.41h.1a1,1,0,0,0,.54-.63l.12-.26c.18-.41.34-.83.5-1.29l-1.06-.73-.19-.12a1,1,0,0,0-.66-.25,1.31,1.31,0,0,0-.28,0h0V202h0l1.64-.47h-.12l-.19.09a.13.13,0,0,0,0,.24l1,.69h0v-.08c.14-.35.28-.7.41-1a.17.17,0,0,0,0-.14c0-.1-.18-.1-.43,0h0v-.06h0l1.3-.43h0a1.27,1.27,0,0,0-.65.7c-.14.41-.31.81-.47,1.29h0l.13.09.83.56.8.5a.6.6,0,0,0,.39.07h.19m.08,0-.09.09-1.42.45h0s.27-.13.24-.23h0l-1.29-.84h0l-.54,1.41a.15.15,0,0,0,.06.1Z"/>
    <path class="cls-17" d="M156.22,201c-.07-.2-.21-.25-.44-.17h0l1.29-.43H157a.79.79,0,0,0-.17.14.32.32,0,0,0,0,.3l.89,2.59c.08.19.22.24.47.15h0l-1.3.44h0l.11-.06a.29.29,0,0,0,.19-.13.34.34,0,0,0,0-.31C156.81,202.6,156.51,201.76,156.22,201Z"/>
    <path class="cls-17" d="M157.3,200.11h0l.79-.31.3-.12.31-.12.65-.2.45-.09a1.51,1.51,0,0,1,.52,0,1.81,1.81,0,0,1,.54.18,1.62,1.62,0,0,1,.75.8,1.59,1.59,0,0,1,.09,1,1.89,1.89,0,0,1-.88,1.3,2.26,2.26,0,0,1-.49.25l-1.85.7h0v-.06h0c.31-.11.43-.26.36-.44l-1-2.59a.2.2,0,0,0-.18-.15h-.26l-.15.06h0Zm1.09-.31v.09l1.09,2.88c0,.12.19.14.42,0l.22-.08a1.8,1.8,0,0,0,1.1-.92,1.53,1.53,0,0,0,0-1.29,1.73,1.73,0,0,0-.87-1,1.61,1.61,0,0,0-1.29,0Z"/>
    <path class="cls-17" d="M162.63,201.84v-.07h0l.22-.09.18-.11a.26.26,0,0,0,.1-.36h0l-1.05-2.44a.31.31,0,0,0-.4-.18h-.18l2.29-1h.08l.33.66h0a.58.58,0,0,1-.11-.15,1,1,0,0,0-.2-.21.61.61,0,0,0-.27,0l-1,.44h0q.27.6.51,1.2h0l.84-.36a.31.31,0,0,0,.23-.37v0a.17.17,0,0,0,0-.1h.07c.14.33.3.66.44,1h0c-.1-.23-.23-.32-.39-.3h-.14l-.84.37h0l.49,1.12a.21.21,0,0,0,.24.14h.12l.84-.38a.42.42,0,0,0,.3-.38.65.65,0,0,0,0-.39v-.16h0l.27.82h0l-2.79,1.2Z"/>
  </g>
</svg>
